<svg width="71" height="71" viewBox="0 0 71 71" fill="none" xmlns="http://www.w3.org/2000/svg">
<path fill-rule="evenodd" clip-rule="evenodd" d="M35.5 59.1667C48.5714 59.1667 59.1667 48.5714 59.1667 35.5C59.1667 22.4286 48.5714 11.8333 35.5 11.8333C22.4286 11.8333 11.8333 22.4286 11.8333 35.5C11.8333 48.5714 22.4286 59.1667 35.5 59.1667ZM35.5 62.125C50.2044 62.125 62.125 50.2044 62.125 35.5C62.125 20.7956 50.2044 8.875 35.5 8.875C20.7956 8.875 8.875 20.7956 8.875 35.5C8.875 50.2044 20.7956 62.125 35.5 62.125Z" fill="black"/>
<path fill-rule="evenodd" clip-rule="evenodd" d="M31.4855 31.4308C31.6438 32.0195 31.7015 32.6659 31.5092 33.1954C31.4718 33.298 31.4122 33.391 31.3346 33.4678C31.2571 33.5446 31.1634 33.6033 31.0605 33.6396C30.9576 33.676 30.8479 33.6891 30.7393 33.678C30.6307 33.6669 30.5259 33.6319 30.4324 33.5756C30.0369 33.3263 29.6584 33.051 29.2993 32.7517L29.0109 32.515C28.7446 32.299 28.4873 32.089 28.221 31.8893C27.4785 31.3346 26.8898 31.0418 26.3795 31.0669C25.844 31.0935 25.1961 31.4678 24.3648 32.1245C24.1296 32.3094 23.8782 32.5194 23.6179 32.7384C23.0439 33.2176 22.4227 33.7368 21.8325 34.1155C21.728 34.1827 21.6083 34.2226 21.4843 34.2314C21.3604 34.2402 21.2362 34.2176 21.1233 34.1657C21.0104 34.1138 20.9123 34.0343 20.8383 33.9345C20.7642 33.8347 20.7165 33.7179 20.6995 33.5948C20.6255 33.0549 20.7379 32.3804 20.9494 31.7207C21.1908 30.9772 21.537 30.272 21.9775 29.6262C22.8945 28.2846 24.3826 27.0199 26.375 27.1027C28.2979 27.1841 29.7239 28.3112 30.5818 29.5389C31.0137 30.1543 31.3199 30.8154 31.4855 31.4308ZM39.3902 31.4308C39.2305 32.0195 39.1728 32.6659 39.3651 33.1954C39.4024 33.2982 39.462 33.3914 39.5397 33.4684C39.6174 33.5453 39.7112 33.6041 39.8143 33.6405C39.9175 33.6768 40.0274 33.6899 40.1361 33.6786C40.2449 33.6674 40.3498 33.6322 40.4434 33.5756C40.8309 33.3419 41.214 33.0431 41.5749 32.7517L41.8649 32.515C42.1311 32.299 42.3885 32.089 42.6547 31.8893C43.3958 31.3346 43.986 31.0418 44.4948 31.0669C45.0317 31.0935 45.6781 31.4678 46.5109 32.1245C46.7446 32.3094 46.9961 32.5194 47.2579 32.7384C47.8303 33.2176 48.4516 33.7368 49.0432 34.1155C49.1477 34.1824 49.2673 34.222 49.3911 34.2306C49.5148 34.2392 49.6387 34.2165 49.7514 34.1646C49.8641 34.1128 49.962 34.0334 50.036 33.9338C50.11 33.8343 50.1577 33.7177 50.1748 33.5948C50.2488 33.0549 50.1364 32.3804 49.9263 31.7207C49.6849 30.9772 49.3388 30.272 48.8983 29.6262C47.9812 28.2846 46.4917 27.0199 44.4992 27.1027C42.5763 27.1841 41.1519 28.3112 40.2925 29.5389C39.8861 30.1135 39.5809 30.7533 39.3902 31.4308ZM35.5 54.7291C29.5271 54.7291 24.35 50.2206 21.8059 43.6354C21.781 43.5719 21.7563 43.5083 21.7319 43.4446C21.0722 41.6829 22.4833 39.9375 24.3663 39.9375H46.6352C48.5181 39.9375 49.9307 41.6829 49.2681 43.4446C49.2442 43.5083 49.22 43.5719 49.1956 43.6354C46.65 50.2206 41.4729 54.7291 35.5 54.7291ZM46.2624 43.0023C45.8187 44.0791 45.3024 45.0672 44.7315 45.9606H26.2685C25.753 45.1515 25.3015 44.3033 24.918 43.4239V43.0023H46.2624Z" fill="black"/>
<path fill-rule="evenodd" clip-rule="evenodd" d="M46.2565 48.919C46.5923 48.4827 46.9133 48.0271 47.218 47.5537C48.0449 46.2607 48.7317 44.8832 49.2666 43.4446C49.8331 41.9403 48.885 40.4463 47.4221 40.0425C47.1652 39.9722 46.9 39.9369 46.6337 39.9375H24.3663C24.0999 39.9373 23.8347 39.9732 23.5779 40.044C22.9115 40.2237 22.3351 40.6436 21.9597 41.2229C21.7493 41.5491 21.6191 41.9204 21.5797 42.3066C21.5404 42.6927 21.593 43.0827 21.7334 43.4446C21.8829 43.8378 22.0417 44.2275 22.2097 44.6132C22.6682 45.656 23.1948 46.6396 23.782 47.5537C24.0867 48.0271 24.4077 48.4827 24.7435 48.9175C27.5155 52.5134 31.311 54.7292 35.5 54.7292C39.6875 54.7292 43.4845 52.5134 46.2565 48.919ZM46.2624 43.0023C45.8402 44.0316 45.3279 45.0215 44.7315 45.9607H26.2685C25.753 45.1515 25.3015 44.3034 24.918 43.4239V43.0023H46.2624Z" fill="black"/>
</svg>
