<svg width="37" height="23" viewBox="0 0 37 23" fill="none" xmlns="http://www.w3.org/2000/svg">
<path id="Vector" d="M25.1311 0H20.165C19.7025 0 19.2573 0.175781 18.9163 0.492188L13.2333 5.76562C13.2275 5.77148 13.2217 5.7832 13.2159 5.78906C12.2563 6.70313 12.2736 8.16211 13.0945 9.07031C13.8288 9.88477 15.3723 10.1016 16.3378 9.22852C16.3436 9.22266 16.3552 9.22266 16.3609 9.2168L20.9802 4.92773C21.3559 4.58203 21.9456 4.60547 22.2867 4.98633C22.6336 5.36719 22.6047 5.95898 22.2289 6.31055L20.72 7.71094L29.1375 14.6367C29.3052 14.7773 29.4555 14.9297 29.5942 15.0879V3.75L26.4377 0.550781C26.0966 0.199219 25.6225 0 25.1311 0ZM31.45 3.76172V16.8809C31.45 17.918 32.2767 18.7559 33.3 18.7559H37V3.76172H31.45ZM34.225 16.8809C33.7163 16.8809 33.3 16.459 33.3 15.9434C33.3 15.4277 33.7163 15.0059 34.225 15.0059C34.7338 15.0059 35.15 15.4277 35.15 15.9434C35.15 16.459 34.7338 16.8809 34.225 16.8809ZM0 18.75H3.7C4.72328 18.75 5.55 17.9121 5.55 16.875V3.76172H0V18.75ZM2.775 15.0059C3.28375 15.0059 3.7 15.4277 3.7 15.9434C3.7 16.459 3.28375 16.8809 2.775 16.8809C2.26625 16.8809 1.85 16.459 1.85 15.9434C1.85 15.4219 2.26625 15.0059 2.775 15.0059ZM27.9755 16.0957L19.3441 8.99414L17.6097 10.6055C15.8927 12.1934 13.2622 12.041 11.7302 10.3477C10.175 8.625 10.2964 5.95898 11.9845 4.38867L16.7136 0H11.8689C11.3775 0 10.9092 0.199219 10.5623 0.550781L7.4 3.75V16.8691H8.45797L13.69 21.668C15.2741 22.9746 17.6039 22.7285 18.8931 21.123L18.9047 21.1113L19.9395 22.0195C20.8587 22.7812 22.2173 22.6348 22.9631 21.7031L24.7784 19.4414L25.0906 19.6992C25.8827 20.3496 27.0505 20.2324 27.6922 19.4238L28.2414 18.7383C28.8889 17.9297 28.7675 16.752 27.9755 16.0957Z" fill="#0000FF" fill-opacity="0.54902"/>
</svg>
