<svg width="46" height="52" viewBox="0 0 46 52" fill="none" xmlns="http://www.w3.org/2000/svg">
<path fill-rule="evenodd" clip-rule="evenodd" d="M22.6122 42.6C30.9381 42.6 37.6869 34.9714 37.6869 25.56C37.6869 16.1486 30.9381 8.51998 22.6122 8.51998C14.2862 8.51998 7.53739 16.1486 7.53739 25.56C7.53739 34.9714 14.2862 42.6 22.6122 42.6ZM22.6122 44.73C31.9783 44.73 39.5713 36.1472 39.5713 25.56C39.5713 14.9728 31.9783 6.38998 22.6122 6.38998C13.246 6.38998 5.65305 14.9728 5.65305 25.56C5.65305 36.1472 13.246 44.73 22.6122 44.73Z" fill="black"/>
<path fill-rule="evenodd" clip-rule="evenodd" d="M20.0551 22.6302C20.1559 23.054 20.1927 23.5194 20.0702 23.9007C20.0464 23.9746 20.0084 24.0415 19.959 24.0968C19.9096 24.1521 19.8499 24.1944 19.7844 24.2205C19.7188 24.2467 19.6489 24.2561 19.5797 24.2482C19.5106 24.2402 19.4438 24.215 19.3843 24.1744C19.1324 23.9949 18.8913 23.7968 18.6626 23.5812L18.4788 23.4108C18.3093 23.2553 18.1453 23.1041 17.9757 22.9603C17.5028 22.5609 17.1278 22.3501 16.8027 22.3682C16.4617 22.3873 16.049 22.6568 15.5195 23.1297C15.3697 23.2628 15.2095 23.414 15.0437 23.5716C14.6781 23.9167 14.2824 24.2905 13.9065 24.5631C13.8399 24.6116 13.7637 24.6403 13.6847 24.6466C13.6057 24.6529 13.5267 24.6366 13.4547 24.5993C13.3828 24.5619 13.3204 24.5047 13.2732 24.4329C13.226 24.361 13.1956 24.2769 13.1848 24.1883C13.1377 23.7995 13.2093 23.3139 13.344 22.8389C13.4978 22.3036 13.7183 21.7958 13.9988 21.3309C14.583 20.3649 15.5308 19.4543 16.7999 19.514C18.0247 19.5726 18.933 20.3841 19.4794 21.268C19.7545 21.7111 19.9496 22.1871 20.0551 22.6302ZM25.0901 22.6302C24.9883 23.054 24.9516 23.5194 25.0741 23.9007C25.0978 23.9747 25.1358 24.0418 25.1853 24.0972C25.2348 24.1527 25.2945 24.195 25.3602 24.2212C25.4259 24.2473 25.4959 24.2567 25.5652 24.2486C25.6345 24.2406 25.7013 24.2152 25.7609 24.1744C26.0077 24.0061 26.2518 23.791 26.4817 23.5812L26.6663 23.4108C26.8359 23.2553 26.9999 23.1041 27.1694 22.9603C27.6415 22.5609 28.0174 22.3501 28.3415 22.3682C28.6835 22.3873 29.0952 22.6568 29.6257 23.1297C29.7746 23.2628 29.9347 23.414 30.1015 23.5716C30.4661 23.9167 30.8618 24.2905 31.2387 24.5631C31.3052 24.6113 31.3814 24.6398 31.4602 24.646C31.5391 24.6522 31.618 24.6359 31.6898 24.5986C31.7616 24.5612 31.8239 24.5041 31.871 24.4324C31.9181 24.3607 31.9486 24.2767 31.9595 24.1883C32.0066 23.7995 31.935 23.3139 31.8012 22.8389C31.6474 22.3036 31.4269 21.7958 31.1464 21.3309C30.5622 20.3649 29.6134 19.4543 28.3443 19.514C27.1195 19.5726 26.2122 20.3841 25.6648 21.268C25.4059 21.6817 25.2115 22.1424 25.0901 22.6302ZM22.6122 39.405C18.8077 39.405 15.5101 36.1589 13.8895 31.4175C13.8737 31.3718 13.858 31.326 13.8424 31.2801C13.4222 30.0117 14.321 28.755 15.5204 28.755H29.7048C30.9042 28.755 31.804 30.0117 31.3819 31.2801C31.3667 31.326 31.3513 31.3718 31.3357 31.4175C29.7143 36.1589 26.4166 39.405 22.6122 39.405ZM29.4674 30.9617C29.1847 31.737 28.8559 32.4484 28.4923 33.0917H16.7321C16.4037 32.5091 16.1161 31.8984 15.8719 31.2652V30.9617H29.4674Z" fill="black"/>
<path fill-rule="evenodd" clip-rule="evenodd" d="M29.4637 35.2217C29.6775 34.9075 29.882 34.5795 30.0761 34.2387C30.6028 33.3077 31.0403 32.3159 31.381 31.2801C31.7418 30.197 31.1379 29.1213 30.2061 28.8306C30.0425 28.78 29.8735 28.7545 29.7039 28.755H15.5204C15.3508 28.7549 15.1818 28.7807 15.0183 28.8317C14.5938 28.9611 14.2266 29.2634 13.9875 29.6805C13.8535 29.9153 13.7705 30.1827 13.7455 30.4607C13.7204 30.7387 13.754 31.0195 13.8434 31.2801C13.9386 31.5632 14.0398 31.8437 14.1468 32.1214C14.4388 32.8723 14.7742 33.5805 15.1483 34.2387C15.3424 34.5795 15.5468 34.9075 15.7607 35.2206C17.5263 37.8096 19.9439 39.405 22.6122 39.405C25.2795 39.405 27.698 37.8096 29.4637 35.2217ZM29.4674 30.9617C29.1985 31.7027 28.8722 32.4155 28.4923 33.0917H16.7321C16.4037 32.5091 16.1161 31.8984 15.8719 31.2652V30.9617H29.4674Z" fill="black"/>
</svg>
