<svg width="27" height="30" viewBox="0 0 34 34" fill="none" xmlns="http://www.w3.org/2000/svg">
<path d="M21.6551 15.3996L18.5008 20.4133C18.3717 20.5921 18.2148 20.7491 18.0359 20.8781C17.6041 21.1793 17.071 21.2981 16.5522 21.2087C16.0334 21.1193 15.5708 20.8288 15.2648 20.4004C14.9589 19.9721 14.8342 19.4403 14.9178 18.9205C15.0015 18.4008 15.2867 17.935 15.7117 17.6242L20.7254 14.4699C20.8393 14.3905 20.9749 14.3479 21.1138 14.3479C21.2528 14.3479 21.3883 14.3905 21.5023 14.4699C21.6454 14.5733 21.7419 14.7291 21.7705 14.9033C21.7991 15.0775 21.7576 15.2559 21.6551 15.3996Z" fill="#EE133A" fill-opacity="0.8"/>
<path d="M17 4.25C8.78556 4.25 2.12501 10.9039 2.12501 19.1184C2.11998 22.7527 3.45051 26.2622 5.86369 28.9797C5.93673 29.0594 6.00314 29.1391 6.07619 29.2121C6.23333 29.3822 6.42409 29.5179 6.63638 29.6104C6.84868 29.703 7.07788 29.7505 7.30948 29.7499C7.54108 29.7492 7.77002 29.7005 7.98181 29.6068C8.19361 29.5131 8.38363 29.3764 8.53986 29.2055C9.61664 28.0353 10.9245 27.1012 12.3807 26.4623C13.8369 25.8234 15.4098 25.4935 17 25.4935C18.5902 25.4935 20.1631 25.8234 21.6194 26.4623C23.0756 27.1012 24.3834 28.0353 25.4602 29.2055C25.6164 29.3764 25.8064 29.5131 26.0182 29.6068C26.23 29.7005 26.459 29.7492 26.6905 29.7499C26.9221 29.7505 27.1513 29.703 27.3636 29.6104C27.5759 29.5179 27.7667 29.3822 27.9238 29.2121L28.1363 28.9797C30.5495 26.2622 31.8801 22.7527 31.875 19.1184C31.875 10.9039 25.2145 4.25 17 4.25Z" stroke="#EE133A" stroke-opacity="0.8" stroke-width="3.75" stroke-linecap="round" stroke-linejoin="round"/>
<path d="M17 8.5V10.625M27.625 19.125H25.5M8.5 19.125H6.375M10.9896 13.1146L9.4868 11.6118M23.0104 13.1146L24.5132 11.6118" stroke="#EE133A" stroke-opacity="0.8" stroke-width="3.75" stroke-miterlimit="10" stroke-linecap="round"/>
</svg>
