<svg width="65" height="52" viewBox="0 0 65 52" fill="none" xmlns="http://www.w3.org/2000/svg">
<path d="M11.375 0C8.68359 0 6.5 2.18359 6.5 4.875V9.75H1.625C0.73125 9.75 0 10.4813 0 11.375C0 12.2688 0.73125 13 1.625 13H27.625C28.5188 13 29.25 13.7313 29.25 14.625C29.25 15.5188 28.5188 16.25 27.625 16.25H4.875C3.98125 16.25 3.25 16.9813 3.25 17.875C3.25 18.7688 3.98125 19.5 4.875 19.5H24.375C25.2688 19.5 26 20.2313 26 21.125C26 22.0188 25.2688 22.75 24.375 22.75H1.625C0.73125 22.75 0 23.4813 0 24.375C0 25.2688 0.73125 26 1.625 26H21.125C22.0188 26 22.75 26.7313 22.75 27.625C22.75 28.5188 22.0188 29.25 21.125 29.25H6.5V42.25C6.5 47.6328 10.8672 52 16.25 52C21.6328 52 26 47.6328 26 42.25H39C39 47.6328 43.3672 52 48.75 52C54.1328 52 58.5 47.6328 58.5 42.25H61.75C63.5477 42.25 65 40.7977 65 39C65 37.2023 63.5477 35.75 61.75 35.75V24.1008C61.75 22.3742 61.0695 20.7188 59.8508 19.5L52 11.6492C50.7813 10.4305 49.1258 9.75 47.3992 9.75H42.25V4.875C42.25 2.18359 40.0664 0 37.375 0H11.375ZM55.25 24.1008V26H42.25V16.25H47.3992L55.25 24.1008ZM16.25 37.375C17.5429 37.375 18.7829 37.8886 19.6971 38.8029C20.6114 39.7171 21.125 40.9571 21.125 42.25C21.125 43.5429 20.6114 44.7829 19.6971 45.6971C18.7829 46.6114 17.5429 47.125 16.25 47.125C14.9571 47.125 13.7171 46.6114 12.8029 45.6971C11.8886 44.7829 11.375 43.5429 11.375 42.25C11.375 40.9571 11.8886 39.7171 12.8029 38.8029C13.7171 37.8886 14.9571 37.375 16.25 37.375ZM43.875 42.25C43.875 40.9571 44.3886 39.7171 45.3029 38.8029C46.2171 37.8886 47.4571 37.375 48.75 37.375C50.0429 37.375 51.2829 37.8886 52.1971 38.8029C53.1114 39.7171 53.625 40.9571 53.625 42.25C53.625 43.5429 53.1114 44.7829 52.1971 45.6971C51.2829 46.6114 50.0429 47.125 48.75 47.125C47.4571 47.125 46.2171 46.6114 45.3029 45.6971C44.3886 44.7829 43.875 43.5429 43.875 42.25Z" fill="black"/>
</svg>
