<svg width="21" height="21" viewBox="0 0 21 21" fill="none" xmlns="http://www.w3.org/2000/svg">
<path d="M17.2407 3.06239C16.3206 2.13303 15.2247 1.39616 14.0169 0.894773C12.8091 0.393382 11.5135 0.137502 10.2058 0.142058C4.72638 0.142058 0.260582 4.60786 0.260582 10.0872C0.260582 11.8435 0.722216 13.5495 1.58527 15.0548L0.180298 20.2131L5.44894 18.8282C6.90409 19.621 8.53988 20.0425 10.2058 20.0425C15.6852 20.0425 20.151 15.5767 20.151 10.0973C20.151 7.43787 19.1173 4.93903 17.2407 3.06239ZM10.2058 18.3565C8.72052 18.3565 7.26537 17.9551 5.99086 17.2024L5.68979 17.0218L2.55871 17.8447L3.39166 14.7939L3.19095 14.4828C2.36578 13.1651 1.92762 11.642 1.92648 10.0872C1.92648 5.53113 5.63962 1.81799 10.1957 1.81799C12.4036 1.81799 14.4809 2.68104 16.0364 4.24658C16.8066 5.01326 17.417 5.92518 17.8322 6.9295C18.2473 7.93382 18.459 9.01055 18.455 10.0973C18.475 14.6534 14.7619 18.3565 10.2058 18.3565ZM14.7418 12.1746C14.4909 12.0542 13.2666 11.4521 13.0458 11.3618C12.815 11.2815 12.6544 11.2413 12.4838 11.4822C12.3132 11.7331 11.8416 12.2951 11.7011 12.4556C11.5606 12.6262 11.41 12.6463 11.1591 12.5158C10.9083 12.3954 10.1054 12.1245 9.16208 11.2815C8.41945 10.6191 7.92771 9.80626 7.77718 9.55537C7.63668 9.30448 7.75711 9.17402 7.88757 9.04356C7.99796 8.93317 8.13846 8.75253 8.25888 8.61203C8.37931 8.47153 8.42949 8.36114 8.50977 8.20057C8.59006 8.02997 8.54991 7.88947 8.4897 7.76905C8.42949 7.64862 7.92771 6.42429 7.727 5.92251C7.52629 5.44081 7.31555 5.50102 7.16501 5.49099H6.68331C6.5127 5.49099 6.25178 5.5512 6.02097 5.80209C5.80018 6.05297 5.15791 6.6551 5.15791 7.87944C5.15791 9.10377 6.05107 10.288 6.1715 10.4485C6.29192 10.6191 7.92771 13.128 10.4165 14.2018C11.0086 14.4627 11.4702 14.6133 11.8315 14.7237C12.4236 14.9143 12.9655 14.8842 13.3971 14.824C13.8788 14.7538 14.8723 14.2219 15.073 13.6398C15.2837 13.0578 15.2837 12.566 15.2135 12.4556C15.1432 12.3452 14.9927 12.2951 14.7418 12.1746Z" fill="#4ECB71"/>
</svg>
